<svg width="1090" height="151" viewBox="0 0 1090 151" fill="none" xmlns="http://www.w3.org/2000/svg">
<path d="M130.98 53.4688H99.8722C99.304 49.4441 98.1439 45.8693 96.392 42.7443C94.6402 39.572 92.3911 36.8731 89.6449 34.6477C86.8987 32.4223 83.7263 30.7178 80.1278 29.5341C76.5767 28.3504 72.7178 27.7585 68.5511 27.7585C61.0227 27.7585 54.465 29.6288 48.8778 33.3693C43.2907 37.0625 38.9583 42.4602 35.8807 49.5625C32.803 56.6174 31.2642 65.1875 31.2642 75.2727C31.2642 85.642 32.803 94.3542 35.8807 101.409C39.0057 108.464 43.3617 113.791 48.9489 117.389C54.536 120.988 60.9991 122.787 68.3381 122.787C72.4574 122.787 76.2689 122.242 79.7727 121.153C83.3239 120.064 86.4725 118.478 89.2188 116.395C91.965 114.264 94.2377 111.684 96.0369 108.653C97.8835 105.623 99.1619 102.167 99.8722 98.2841L130.98 98.4261C130.175 105.102 128.163 111.542 124.943 117.744C121.771 123.9 117.486 129.416 112.088 134.293C106.738 139.122 100.346 142.957 92.9119 145.798C85.5256 148.592 77.1686 149.989 67.8409 149.989C54.8674 149.989 43.267 147.053 33.0398 141.182C22.8598 135.311 14.8106 126.812 8.89205 115.685C3.02083 104.558 0.0852273 91.0871 0.0852273 75.2727C0.0852273 59.411 3.06818 45.9167 9.03409 34.7898C15 23.6629 23.0966 15.1875 33.3239 9.36364C43.5511 3.49242 55.0568 0.556813 67.8409 0.556813C76.2689 0.556813 84.0814 1.74053 91.2784 4.10795C98.5227 6.47538 104.938 9.93181 110.526 14.4773C116.113 18.9754 120.658 24.4915 124.162 31.0256C127.713 37.5597 129.986 45.0407 130.98 53.4688ZM286.697 75.2727C286.697 91.1345 283.691 104.629 277.678 115.756C271.712 126.883 263.568 135.382 253.246 141.253C242.971 147.077 231.418 149.989 218.587 149.989C205.661 149.989 194.06 147.053 183.786 141.182C173.511 135.311 165.391 126.812 159.425 115.685C153.459 104.558 150.476 91.0871 150.476 75.2727C150.476 59.411 153.459 45.9167 159.425 34.7898C165.391 23.6629 173.511 15.1875 183.786 9.36364C194.06 3.49242 205.661 0.556813 218.587 0.556813C231.418 0.556813 242.971 3.49242 253.246 9.36364C263.568 15.1875 271.712 23.6629 277.678 34.7898C283.691 45.9167 286.697 59.411 286.697 75.2727ZM255.518 75.2727C255.518 64.9981 253.98 56.3333 250.902 49.2784C247.872 42.2235 243.587 36.8731 238.047 33.2273C232.507 29.5814 226.02 27.7585 218.587 27.7585C211.153 27.7585 204.666 29.5814 199.126 33.2273C193.587 36.8731 189.278 42.2235 186.2 49.2784C183.17 56.3333 181.655 64.9981 181.655 75.2727C181.655 85.5473 183.17 94.2121 186.2 101.267C189.278 108.322 193.587 113.672 199.126 117.318C204.666 120.964 211.153 122.787 218.587 122.787C226.02 122.787 232.507 120.964 238.047 117.318C243.587 113.672 247.872 108.322 250.902 101.267C253.98 94.2121 255.518 85.5473 255.518 75.2727ZM431.14 2.54545V148H404.577L341.296 56.4517H340.231V148H309.478V2.54545H336.467L399.251 94.0227H400.529V2.54545H431.14ZM482.827 2.54545L517.983 113.057H519.332L554.56 2.54545H588.651L538.509 148H498.878L448.665 2.54545H482.827ZM606.158 148V2.54545H704.169V27.9006H636.911V62.5597H699.126V87.9148H636.911V122.645H704.453V148H606.158ZM728.619 148V2.54545H786.005C796.99 2.54545 806.365 4.51041 814.13 8.44034C821.942 12.3229 827.885 17.839 831.957 24.9886C836.076 32.0909 838.136 40.4479 838.136 50.0597C838.136 59.7187 836.052 68.0284 831.886 74.9886C827.719 81.9015 821.682 87.2045 813.775 90.8977C805.915 94.5909 796.398 96.4375 785.224 96.4375H746.8V71.7216H780.252C786.123 71.7216 791 70.9167 794.883 69.3068C798.765 67.697 801.654 65.2822 803.548 62.0625C805.489 58.8428 806.46 54.8419 806.46 50.0597C806.46 45.2301 805.489 41.1581 803.548 37.8438C801.654 34.5294 798.742 32.0199 794.812 30.3153C790.929 28.5634 786.029 27.6875 780.11 27.6875H759.371V148H728.619ZM807.17 81.8068L843.32 148H809.371L774.002 81.8068H807.17ZM938.775 44.3778C938.207 38.6487 935.768 34.1979 931.46 31.0256C927.151 27.8532 921.303 26.267 913.917 26.267C908.898 26.267 904.66 26.9773 901.204 28.3977C897.747 29.7708 895.096 31.6884 893.249 34.1506C891.45 36.6127 890.55 39.4062 890.55 42.5312C890.456 45.1354 891 47.4081 892.184 49.3494C893.415 51.2907 895.096 52.9716 897.227 54.392C899.357 55.7651 901.819 56.9725 904.613 58.0142C907.406 59.0085 910.389 59.8608 913.562 60.571L926.63 63.696C932.975 65.1165 938.799 67.0104 944.102 69.3778C949.405 71.7453 953.997 74.6572 957.88 78.1136C961.763 81.5701 964.769 85.642 966.9 90.3295C969.078 95.017 970.191 100.391 970.238 106.452C970.191 115.353 967.918 123.071 963.42 129.605C958.969 136.092 952.53 141.134 944.102 144.733C935.721 148.284 925.612 150.06 913.775 150.06C902.032 150.06 891.805 148.26 883.093 144.662C874.428 141.063 867.657 135.737 862.781 128.682C857.951 121.58 855.418 112.796 855.181 102.332H884.94C885.271 107.209 886.668 111.281 889.13 114.548C891.639 117.768 894.978 120.206 899.144 121.864C903.358 123.473 908.117 124.278 913.42 124.278C918.628 124.278 923.15 123.521 926.985 122.006C930.868 120.491 933.874 118.384 936.005 115.685C938.136 112.986 939.201 109.884 939.201 106.381C939.201 103.114 938.23 100.367 936.289 98.142C934.395 95.9167 931.602 94.0227 927.908 92.4602C924.263 90.8977 919.788 89.4773 914.485 88.1989L898.647 84.2216C886.384 81.2386 876.701 76.5748 869.599 70.2301C862.496 63.8854 858.969 55.339 859.016 44.5909C858.969 35.7841 861.313 28.09 866.048 21.5085C870.83 14.9271 877.388 9.78977 885.721 6.09659C894.054 2.4034 903.524 0.556813 914.13 0.556813C924.925 0.556813 934.348 2.4034 942.397 6.09659C950.494 9.78977 956.791 14.9271 961.289 21.5085C965.787 28.09 968.107 35.7131 968.249 44.3778H938.775ZM990.923 148V2.54545H1088.93V27.9006H1021.68V62.5597H1083.89V87.9148H1021.68V122.645H1089.22V148H990.923Z" fill="white"/>
</svg>
