<svg xmlns="http://www.w3.org/2000/svg" height="800" width="1200" viewBox="-107.7 -121.75 933.4 730.5"><g fill="#fff"><path d="M427.74 175L270 350h135.26L563 175 405.26 0H270z"/><path d="M222.226 137.567L151 114.06 195.655 176l-43.917 61.567 70.488-23.507 42.81 61.94v-76.493L337 176l-71.964-23.88V76zM44.766 423.364c6.242 0 12.376 3.025 16.465 8.103l1.507 1.837L82 420.015l-1.722-2.16C71.777 407.157 58.756 401 44.766 401 20.123 401 0 420.34 0 444s20.123 43 44.766 43c13.882 0 26.796-6.05 35.297-16.53l1.722-2.161-19.263-13.289-1.506 1.837c-4.197 5.078-10.116 7.995-16.357 7.995-11.407 0-21.092-9.508-21.092-20.744.108-11.236 9.793-20.744 21.2-20.744zm206.864 25.428L217.011 403H195v81h21.37v-45.36L248.638 484H273v-81h-21.37zm82.609 11.88c0 .648-.862.756-1.293.756-.323 0-.97-.108-1.292-.864L313.774 403H289l26.39 81h35.22L377 403h-24.774zm200.03-9.828c8.635-4.968 13.6-14.04 12.845-23.976-.972-13.5-12.738-23.868-26.77-23.868H479v81h21.59v-29.16h9.714c.972 0 1.835.108 2.483.972L526.712 484H551zM519.2 434H500v-9h19.2c2.618 0 4.8 1.8 4.8 4.5s-2.182 4.5-4.8 4.5zM654 484h64v-21.6h-42.667v-9.72h38.4v-19.44h-38.4v-8.64H718V403h-64zm-49.316-50.212c-11.475-2.58-14.8-4.3-14.8-8.063v-.215c0-3.01 2.252-5.375 7.829-5.375 7.4 0 13.406 2.365 21.45 7.203l12.869-15.265c-9.009-7.203-19.84-11.073-33.89-11.073-19.948 0-31.852 11.18-31.852 26.66v.215c0 17.093 14.05 22.145 31.745 26.122 11.26 2.58 14.37 4.515 14.37 7.955v.215c0 3.548-3.967 5.698-10.188 5.698-9.652 0-19.09-3.44-27.24-9.998L562 473.24c10.188 9.137 24.988 13.76 39.681 13.76C621.843 487 636 476.895 636 459.91v-.215c0-15.587-12.226-21.715-31.316-25.907zM134.5 401c-24 0-43.5 19.34-43.5 43 0 23.769 19.5 43 43.5 43s43.5-19.34 43.5-43c0-23.769-19.5-43-43.5-43zm0 64c-11.329 0-20.5-9.171-20.5-20.5s9.171-20.5 20.5-20.5 20.5 9.171 20.5 20.5-9.171 20.5-20.5 20.5zM393 484h64v-21.6h-42.667v-9.72h38.4v-19.44h-38.4v-8.64H457V403h-64z"/></g></svg>